Coordinates
version=1
nRows=10
nColumns=40
inDegrees=yes

Units are S.I. units (second, meters, Newtons, ...)
Angles are in degrees.

endheader
time	pelvis_tilt	pelvis_list	pelvis_rotation	pelvis_tx	pelvis_ty	pelvis_tz	hip_flexion_r	hip_adduction_r	hip_rotation_r	knee_angle_r	knee_angle_r_beta	ankle_angle_r	subtalar_angle_r	mtp_angle_r	hip_flexion_l	hip_adduction_l	hip_rotation_l	knee_angle_l	knee_angle_l_beta	ankle_angle_l	subtalar_angle_l	mtp_angle_l	lumbar_extension	lumbar_bending	lumbar_rotation	arm_flex_r	arm_add_r	arm_rot_r	elbow_flex_r	pro_sup_r	wrist_flex_r	wrist_dev_r	arm_flex_l	arm_add_l	arm_rot_l	elbow_flex_l	pro_sup_l	wrist_flex_l	wrist_dev_l
     56.03500000	     -5.76806070	     -1.38916616	    -12.97668025	      1.15248925	      0.92874243	      0.47049602	     19.89242744	     -1.62329084	     -0.37714924	     18.70879920	     18.70879920	      7.58625616	      6.42278003	     -3.04508012	     -1.17253140	     -4.73775842	    -18.64774953	     13.35958123	     13.35958123	     17.62662674	     -7.64331865	      4.41870935	     -9.78898563	      4.14993959	      0.42476318	    -18.97456990	    -14.63631587	     -2.07466719	     41.36302268	     45.18013122	      0.00000000	      0.00000000	     40.19014505	    -24.43681434	     -9.73948494	     70.57165608	     48.07644074	      0.00000000	      0.00000000
     56.05742857	     -5.88167139	     -1.54227947	    -12.33282700	      1.15383065	      0.92962350	      0.47608801	     19.17115229	     -1.23919568	     -0.84298620	     18.23282837	     18.23282837	      7.64531529	      6.06229842	     -3.37582236	     -1.43738761	     -5.50311648	    -19.14386683	     13.52255735	     13.52255735	     18.42304009	     -5.57557759	      6.44932471	     -9.77060614	      4.22543755	      0.41580569	    -18.92746967	    -14.99733659	     -1.86444355	     42.08039818	     45.17694362	      0.00000000	      0.00000000	     38.90362330	    -23.26668552	    -10.37031744	     69.00013355	     48.05501935	      0.00000000	      0.00000000
     56.07985714	     -6.51189606	     -2.15106084	    -11.11566154	      1.15373561	      0.92928253	      0.48089244	     19.02223399	     -0.43432123	     -1.96367474	     17.88869060	     17.88869060	      7.75715880	      5.55631851	     -3.26622337	     -0.50676562	     -7.01598537	    -18.41082371	     14.59459526	     14.59459526	     18.34397477	     -5.06427276	      5.88330653	     -9.40034507	      4.92431559	     -0.08906731	    -18.50609193	    -15.28491938	     -1.96925711	     42.41449611	     45.17789278	      0.00000000	      0.00000000	     37.15025225	    -22.45796060	    -10.05541268	     67.93614305	     47.99723460	      0.00000000	      0.00000000
     56.10228571	     -7.66369766	     -3.61577479	     -9.21521834	      1.15182215	      0.92750992	      0.48498015	     19.41458748	      1.17728087	     -3.82469516	     17.56621806	     17.56621806	      7.69766339	      4.60980402	     -2.98868426	      1.94133271	     -9.87130305	    -16.97957694	     17.19575630	     17.19575630	     18.46931527	     -4.59435663	      4.23661229	     -8.67180844	      6.65347840	     -1.00472241	    -17.97109253	    -15.64230236	     -2.08635213	     42.90617702	     45.17305499	      0.00000000	      0.00000000	     35.41342617	    -21.47409789	     -9.66215597	     66.66733884	     47.93187838	      0.00000000	      0.00000000
     56.12471429	     -9.60810996	     -6.24838675	     -6.48713167	      1.14711759	      0.92290589	      0.48854782	     21.02866729	      3.93016190	     -6.04417765	     17.62676976	     17.62676976	      7.82853941	      1.94590499	     -1.61187557	      7.05306685	    -14.74867253	    -15.53214298	     22.34083738	     22.34083738	     18.40235343	     -2.20183840	     -1.33337654	     -7.14517282	      9.69790447	     -2.79841344	    -17.36539229	    -16.16989886	     -1.96018139	     44.58119773	     45.12274355	      0.00000000	      0.00000000	     34.05570255	    -20.51454377	     -9.20142082	     64.33695946	     47.84372457	      0.00000000	      0.00000000
     56.14714286	    -12.20814091	    -10.31053886	     -2.97409929	      1.13961459	      0.91545858	      0.49119049	     23.85760269	      7.56557215	     -9.75567897	     17.70660306	     17.70660306	      8.25016117	     -0.63104984	      1.56598368	     14.93262475	    -20.57291186	    -10.75495876	     28.80772853	     28.80772853	     18.12400441	     -1.42391312	     -6.26201067	     -4.72942181	     14.27069768	     -4.85957239	    -17.46138262	    -17.19598334	     -1.28215575	     47.70414656	     45.01164330	      0.00000000	      0.00000000	     33.08198848	    -19.07585323	     -7.97566607	     61.84850249	     47.70688991	      0.00000000	      0.00000000
     56.16957143	    -15.18742581	    -15.44371911	      0.99472247	      1.12946621	      0.90500141	      0.49323479	     28.19182682	     11.32344130	    -14.83033217	     18.16536247	     18.16536247	      8.75337025	     -3.25094913	      4.87849500	     25.75888348	    -25.93033296	     -2.77621720	     36.11706949	     36.11706949	     18.55276265	     -0.59842851	     -7.44167675	     -1.14111187	     19.74104667	     -7.95135566	    -17.35234319	    -18.53311230	     -0.73909400	     51.21065114	     44.91044198	      0.00000000	      0.00000000	     31.98961475	    -17.70938722	     -6.35513390	     59.39109968	     47.56500402	      0.00000000	      0.00000000
     56.19200000	    -17.81963960	    -20.93522726	      4.94614746	      1.11809146	      0.89323901	      0.49516854	     33.19127506	     14.42684599	    -20.63013369	     18.88961458	     18.88961458	      9.35427335	     -5.62973329	      7.84635025	     37.71904501	    -29.22547260	      7.29322036	     42.69579003	     42.69579003	     18.16252321	     -0.08693866	     -7.80883482	      3.09799909	     25.17926831	    -11.65107166	    -17.10718531	    -20.21575435	     -0.20866439	     55.12589845	     44.81132402	      0.00000000	      0.00000000	     30.86996065	    -16.35283461	     -4.46689600	     56.71493247	     47.43203863	      0.00000000	      0.00000000
     56.21442857	    -19.67225198	    -25.79770007	      8.45656616	      1.10723817	      0.88209162	      0.49734062	     37.95360871	     16.31676503	    -26.21030508	     20.01448533	     20.01448533	      9.98046899	     -7.55777331	      9.63049574	     48.52822092	    -29.90124417	     17.31701011	     48.15729084	     48.15729084	     16.70444012	     -0.46009269	     -8.30272139	      7.25048520	     29.62626013	    -15.32596035	    -16.39315185	    -22.00391279	      0.32143633	     58.79604578	     44.73137732	      0.00000000	      0.00000000	     29.50556131	    -14.98656581	     -2.40038992	     53.86366697	     47.30729579	      0.00000000	      0.00000000
     56.23685714	    -20.43281013	    -29.23907817	     11.27629973	      1.09889813	      0.87329083	      0.50007138	     41.44744956	     17.09523323	    -30.45666713	     21.53546598	     21.53546598	     10.71972782	     -9.08719150	     10.22471998	     56.36387868	    -28.84953251	     25.20352584	     52.80978097	     52.80978097	     14.62117395	     -1.40498250	     -8.91739262	     10.23990261	     32.50108521	    -18.14125776	    -14.96294479	    -23.67699880	      1.08503923	     61.57092350	     44.67836906	      0.00000000	      0.00000000	     27.81396901	    -13.79561058	     -0.33916685	     50.80089238	     47.19060659	      0.00000000	      0.00000000
